# xmcd CD database file
#
# Track frame offsets:
#	150
#	19059
#	35607
#	54270
#	69582
#	82612
#	98077
#	117892
#	138397
#	157180
#	181684
#	203102
#	227290
#	244683
#
# Disc length: 3505 seconds
#
# Revision: 1
# Processed by: cddbd v1.5.1PL0 Copyright (c) Steve Scherf et al.
# Submitted via: jetAudio 5
#
DISCID=a60daf0e
DTITLE=10o. Aparte - Sinuelo da Canção Nativa
DYEAR=1900
DGENRE=
TTITLE0=Então... Vai ser do seu jeito
TTITLE1=Loucura
TTITLE2=Reparando Cercas
TTITLE3=Os Meninos do Brasil
TTITLE4=Sol Madrugador
TTITLE5=Tempo e Magia
TTITLE6=A Voz do Vento
TTITLE7=Cunhataí
TTITLE8=No Meu Espelho
TTITLE9=Infância Tapera
TTITLE10=As Penas dos Anjos
TTITLE11=Olhares
TTITLE12=Ao te ver chegar
TTITLE13=Madrugadas de Invernias
EXTD=Sinuelo da Canção Nativa - 10o. Aparte21 a 23 de novembro de 2003
EXTD=São Sepé - RS
EXTT0=Sinuelo da Canção Nativa - 10o. Aparte
EXTT1=Sinuelo da Canção Nativa - 10o. Aparte
EXTT2=Sinuelo da Canção Nativa - 10o. Aparte
EXTT3=Sinuelo da Canção Nativa - 10o. Aparte
EXTT4=Sinuelo da Canção Nativa - 10o. Aparte
EXTT5=Sinuelo da Canção Nativa - 10o. Aparte
EXTT6=Sinuelo da Canção Nativa - 10o. Aparte
EXTT7=Sinuelo da Canção Nativa - 10o. Aparte
EXTT8=Sinuelo da Canção Nativa - 10o. Aparte
EXTT9=Sinuelo da Canção Nativa - 10o. Aparte
EXTT10=Sinuelo da Canção Nativa - 10o. Aparte
EXTT11=Sinuelo da Canção Nativa - 10o. Aparte
EXTT12=Sinuelo da Canção Nativa - 10o. Aparte
EXTT13=Sinuelo da Canção Nativa - 10o. Aparte
PLAYORDER=
